<mxfile host="app.diagrams.net" agent="Mozilla/5.0 (Windows NT 10.0; Win64; x64) AppleWebKit/537.36 (KHTML, like Gecko) Chrome/131.0.0.0 Safari/537.36" version="24.7.17">
  <diagram name="Trang-1" id="-mhRVk0RW2yk82-CvhLZ">
    <mxGraphModel dx="1843" dy="773" grid="1" gridSize="10" guides="1" tooltips="1" connect="1" arrows="1" fold="1" page="1" pageScale="1" pageWidth="827" pageHeight="1169" math="0" shadow="0">
      <root>
        <mxCell id="0" />
        <mxCell id="1" parent="0" />
        <mxCell id="CrhpLXHgYyasZIyoGrmP-8" value="Đọc và xử lý dữ liệu" style="swimlane;whiteSpace=wrap;html=1;" vertex="1" parent="1">
          <mxGeometry x="251.5" y="20" width="398.5" height="130" as="geometry" />
        </mxCell>
        <mxCell id="CrhpLXHgYyasZIyoGrmP-9" value="&lt;ul&gt;&lt;li&gt;Đọc dữ liệu từ file CSV.&lt;/li&gt;&lt;li&gt;Chuyển đổi thành Dataframe.&lt;/li&gt;&lt;li&gt;Sử dụng select(), withColumn(), dropna()&lt;br&gt;monotonically_increasing_id() để xử lý dữ &lt;br&gt;liệu.&lt;/li&gt;&lt;/ul&gt;" style="text;html=1;align=left;verticalAlign=middle;resizable=0;points=[];autosize=1;strokeColor=none;fillColor=none;" vertex="1" parent="CrhpLXHgYyasZIyoGrmP-8">
          <mxGeometry x="-3" y="15" width="290" height="110" as="geometry" />
        </mxCell>
        <mxCell id="CrhpLXHgYyasZIyoGrmP-10" value="DBSCAN" style="rounded=0;whiteSpace=wrap;html=1;" vertex="1" parent="1">
          <mxGeometry x="10" y="680" width="120" height="60" as="geometry" />
        </mxCell>
        <mxCell id="CrhpLXHgYyasZIyoGrmP-13" value="Tính khoảng cách Eucludean giữa các điểm&lt;span style=&quot;font-size:13.0pt;line-height:&lt;br/&gt;150%;font-family:&amp;quot;Times New Roman&amp;quot;,serif;mso-fareast-font-family:Aptos;&lt;br/&gt;mso-fareast-theme-font:minor-latin;mso-ansi-language:VI;mso-fareast-language:&lt;br/&gt;EN-US;mso-bidi-language:AR-SA;mso-no-proof:yes&quot; lang=&quot;VI&quot;&gt;&amp;nbsp;&lt;/span&gt;" style="swimlane;whiteSpace=wrap;html=1;" vertex="1" parent="1">
          <mxGeometry x="256.5" y="190" width="393.5" height="80" as="geometry" />
        </mxCell>
        <mxCell id="CrhpLXHgYyasZIyoGrmP-14" value="&lt;ul&gt;&lt;li&gt;Sử dụng crossJoin() và withColumn().&amp;nbsp;&lt;/li&gt;&lt;/ul&gt;" style="text;html=1;align=left;verticalAlign=middle;resizable=0;points=[];autosize=1;strokeColor=none;fillColor=none;" vertex="1" parent="CrhpLXHgYyasZIyoGrmP-13">
          <mxGeometry x="4" y="25" width="270" height="50" as="geometry" />
        </mxCell>
        <mxCell id="CrhpLXHgYyasZIyoGrmP-16" value="&lt;span style=&quot;&quot; lang=&quot;VI&quot;&gt;Tìm hàng xóm cho mỗi điểm&amp;nbsp;&lt;/span&gt;&lt;span style=&quot;font-size:13.0pt;line-height:&lt;br/&gt;150%;font-family:&amp;quot;Times New Roman&amp;quot;,serif;mso-fareast-font-family:Aptos;&lt;br/&gt;mso-fareast-theme-font:minor-latin;mso-ansi-language:VI;mso-fareast-language:&lt;br/&gt;EN-US;mso-bidi-language:AR-SA;mso-no-proof:yes&quot; lang=&quot;VI&quot;&gt;&amp;nbsp;&lt;/span&gt;" style="swimlane;whiteSpace=wrap;html=1;" vertex="1" parent="1">
          <mxGeometry x="256" y="310" width="394" height="100" as="geometry" />
        </mxCell>
        <mxCell id="CrhpLXHgYyasZIyoGrmP-17" value="&lt;ul&gt;&lt;li&gt;Sử dụng groupBy(), agg(), collect_set(),&amp;nbsp;&lt;br&gt;when() với điều kiện khoảng cách &amp;lt;= eps.&lt;/li&gt;&lt;/ul&gt;" style="text;html=1;align=left;verticalAlign=middle;resizable=0;points=[];autosize=1;strokeColor=none;fillColor=none;" vertex="1" parent="CrhpLXHgYyasZIyoGrmP-16">
          <mxGeometry y="20" width="290" height="70" as="geometry" />
        </mxCell>
        <mxCell id="CrhpLXHgYyasZIyoGrmP-19" value="Phân loại các điểm core, border, noise&lt;br&gt;Khởi tạo cluster ban đầu&amp;nbsp;" style="swimlane;whiteSpace=wrap;html=1;startSize=40;" vertex="1" parent="1">
          <mxGeometry x="256" y="440" width="394" height="240" as="geometry" />
        </mxCell>
        <mxCell id="CrhpLXHgYyasZIyoGrmP-20" value="&lt;ul&gt;&lt;li&gt;Sử dụng withColumn() với điều kiện số lượng&amp;nbsp;&lt;br&gt;hàng xóm &amp;gt;= minPts để phân loại điểm core.&lt;/li&gt;&lt;li&gt;Sử dụng withColumn() để khởi tạo cluster ban&amp;nbsp;&lt;br&gt;đầu cho các điểm là 0.&lt;/li&gt;&lt;li&gt;Sử dụng filter() để tìm điểm noise.&lt;/li&gt;&lt;li&gt;Sử dụng filter() để tìm điểm core.&lt;/li&gt;&lt;li&gt;Sử dụng join() inner giữa 2 tập điểm noise và core ở&amp;nbsp;&lt;br&gt;trên với điều kiện điểm noise phải là hàng xóm&amp;nbsp;&lt;br&gt;của 1 điểm core để tìm điểm border, sử dụng&lt;br&gt;select() để chỉ giữ.lại index.&lt;/li&gt;&lt;li&gt;Thực hiện join() left giữa dataframe đã phân loại&amp;nbsp;&lt;br&gt;điểm core lúc&amp;nbsp; đế cập nhật lại các điểm border.&lt;/li&gt;&lt;/ul&gt;" style="text;html=1;align=left;verticalAlign=middle;resizable=0;points=[];autosize=1;strokeColor=none;fillColor=none;" vertex="1" parent="CrhpLXHgYyasZIyoGrmP-19">
          <mxGeometry y="40" width="350" height="210" as="geometry" />
        </mxCell>
        <mxCell id="CrhpLXHgYyasZIyoGrmP-21" value="Tạo vòng lặp để mở rộng cụm từ một điểm core" style="swimlane;whiteSpace=wrap;html=1;startSize=40;" vertex="1" parent="1">
          <mxGeometry x="256" y="720" width="394" height="250" as="geometry" />
        </mxCell>
        <mxCell id="CrhpLXHgYyasZIyoGrmP-22" value="&lt;ul&gt;&lt;li&gt;Khởi tạo 1 biến cluster_id = 0&lt;/li&gt;&lt;li&gt;Sử dụng filter() để lấy một điêm core chưa thuộc cụm &lt;br&gt;nào từ tập&amp;nbsp;dataframe đã phân loại điểm ở trên.&lt;/li&gt;&lt;li&gt;Dùng select(), explode() để lấy ra hàng xóm của điểm&amp;nbsp;&lt;br&gt;core ở trên.&lt;/li&gt;&lt;li&gt;Tăng cluster_id lên 1.&lt;/li&gt;&lt;li&gt;Sử dụng join() left, withColumn(), when(), drop() để&amp;nbsp;&lt;br&gt;cập nhật cluster_id cho các hàng xóm của điểm core&amp;nbsp;&lt;br&gt;vừa tìm ở trên (bao gồm chính điểm core đó).&lt;/li&gt;&lt;li&gt;Mở rộng cụm từ điểm core này với cluster_id vừa cập &lt;br&gt;nhật. (ô bên dưới)&lt;/li&gt;&lt;li&gt;Lặp lại cho đến khi không tìm thấy điểm core nào.&lt;br&gt;&lt;/li&gt;&lt;/ul&gt;" style="text;html=1;align=left;verticalAlign=middle;resizable=0;points=[];autosize=1;strokeColor=none;fillColor=none;" vertex="1" parent="CrhpLXHgYyasZIyoGrmP-21">
          <mxGeometry y="40" width="350" height="210" as="geometry" />
        </mxCell>
        <mxCell id="CrhpLXHgYyasZIyoGrmP-23" value="Mở rộng cụm từ một điểm core với cluster_id vừa cập nhật" style="swimlane;whiteSpace=wrap;html=1;startSize=40;" vertex="1" parent="1">
          <mxGeometry x="256" y="1010" width="394" height="230" as="geometry" />
        </mxCell>
        <mxCell id="CrhpLXHgYyasZIyoGrmP-24" value="&lt;ul&gt;&lt;li&gt;Tạo 1 vòng lặp vô hạn.&lt;/li&gt;&lt;li&gt;Dùng fillter() để lọc các điểm với cluster_id vừa cập nhật.&lt;br&gt;&lt;/li&gt;&lt;li&gt;Sử dụng explode() để tìm hàng xóm của các điểm này.&lt;/li&gt;&lt;li&gt;Sử dùng join() left với dataframe đã phân loại các điểm&lt;br&gt;ở bước, fillter() để lọc điểm core và border từ tập các điểm&lt;br&gt;hàng xóm&lt;/li&gt;&lt;li&gt;Sử dụng join() left, withColumn(), when() để cập nhật cluster_id&lt;br&gt;cho các điểm core và border vửa tìm thây trên dataframe đã&lt;br&gt;phân loại các điểm.&lt;/li&gt;&lt;li&gt;Vòng lặp dừng khi không tìm thấy điểm core và border nào từ&lt;br&gt;các hàng xóm của các điểm có cùng cluster_id vừa cập nhật.&lt;/li&gt;&lt;/ul&gt;" style="text;html=1;align=left;verticalAlign=middle;resizable=0;points=[];autosize=1;strokeColor=none;fillColor=none;" vertex="1" parent="CrhpLXHgYyasZIyoGrmP-23">
          <mxGeometry y="30" width="400" height="200" as="geometry" />
        </mxCell>
        <mxCell id="CrhpLXHgYyasZIyoGrmP-27" value="" style="endArrow=classic;html=1;rounded=0;entryX=0;entryY=0.5;entryDx=0;entryDy=0;" edge="1" parent="1" target="CrhpLXHgYyasZIyoGrmP-13">
          <mxGeometry width="50" height="50" relative="1" as="geometry">
            <mxPoint x="130" y="710" as="sourcePoint" />
            <mxPoint x="550" y="360" as="targetPoint" />
          </mxGeometry>
        </mxCell>
        <mxCell id="CrhpLXHgYyasZIyoGrmP-28" value="" style="endArrow=classic;html=1;rounded=0;entryX=-0.012;entryY=0.56;entryDx=0;entryDy=0;entryPerimeter=0;" edge="1" parent="1" target="CrhpLXHgYyasZIyoGrmP-17">
          <mxGeometry width="50" height="50" relative="1" as="geometry">
            <mxPoint x="130" y="710" as="sourcePoint" />
            <mxPoint x="550" y="640" as="targetPoint" />
          </mxGeometry>
        </mxCell>
        <mxCell id="CrhpLXHgYyasZIyoGrmP-29" value="" style="endArrow=classic;html=1;rounded=0;exitX=1;exitY=0.5;exitDx=0;exitDy=0;entryX=-0.003;entryY=0.557;entryDx=0;entryDy=0;entryPerimeter=0;" edge="1" parent="1" source="CrhpLXHgYyasZIyoGrmP-10" target="CrhpLXHgYyasZIyoGrmP-20">
          <mxGeometry width="50" height="50" relative="1" as="geometry">
            <mxPoint x="500" y="690" as="sourcePoint" />
            <mxPoint x="550" y="640" as="targetPoint" />
          </mxGeometry>
        </mxCell>
        <mxCell id="CrhpLXHgYyasZIyoGrmP-30" value="" style="endArrow=classic;html=1;rounded=0;entryX=0.004;entryY=0.554;entryDx=0;entryDy=0;entryPerimeter=0;" edge="1" parent="1" target="CrhpLXHgYyasZIyoGrmP-22">
          <mxGeometry width="50" height="50" relative="1" as="geometry">
            <mxPoint x="140" y="710" as="sourcePoint" />
            <mxPoint x="550" y="640" as="targetPoint" />
          </mxGeometry>
        </mxCell>
        <mxCell id="CrhpLXHgYyasZIyoGrmP-31" value="" style="endArrow=classic;html=1;rounded=0;exitX=1;exitY=0.5;exitDx=0;exitDy=0;entryX=0.01;entryY=0.56;entryDx=0;entryDy=0;entryPerimeter=0;" edge="1" parent="1" source="CrhpLXHgYyasZIyoGrmP-10" target="CrhpLXHgYyasZIyoGrmP-24">
          <mxGeometry width="50" height="50" relative="1" as="geometry">
            <mxPoint x="500" y="1000" as="sourcePoint" />
            <mxPoint x="550" y="950" as="targetPoint" />
          </mxGeometry>
        </mxCell>
        <mxCell id="CrhpLXHgYyasZIyoGrmP-32" value="" style="endArrow=classic;html=1;rounded=0;entryX=-0.007;entryY=0.443;entryDx=0;entryDy=0;entryPerimeter=0;" edge="1" parent="1" target="CrhpLXHgYyasZIyoGrmP-9">
          <mxGeometry width="50" height="50" relative="1" as="geometry">
            <mxPoint x="130" y="710" as="sourcePoint" />
            <mxPoint x="550" y="470" as="targetPoint" />
          </mxGeometry>
        </mxCell>
        <mxCell id="CrhpLXHgYyasZIyoGrmP-33" value="Executor" style="rounded=0;whiteSpace=wrap;html=1;" vertex="1" parent="1">
          <mxGeometry x="880" y="70" width="260" height="60" as="geometry" />
        </mxCell>
        <mxCell id="CrhpLXHgYyasZIyoGrmP-39" value="Executor" style="rounded=0;whiteSpace=wrap;html=1;" vertex="1" parent="1">
          <mxGeometry x="880" y="290" width="260" height="60" as="geometry" />
        </mxCell>
        <mxCell id="CrhpLXHgYyasZIyoGrmP-40" value="Executor" style="rounded=0;whiteSpace=wrap;html=1;" vertex="1" parent="1">
          <mxGeometry x="880" y="570" width="260" height="60" as="geometry" />
        </mxCell>
        <mxCell id="CrhpLXHgYyasZIyoGrmP-41" value="Executor" style="rounded=0;whiteSpace=wrap;html=1;" vertex="1" parent="1">
          <mxGeometry x="880" y="840" width="260" height="60" as="geometry" />
        </mxCell>
        <mxCell id="CrhpLXHgYyasZIyoGrmP-42" value="Executor" style="rounded=0;whiteSpace=wrap;html=1;" vertex="1" parent="1">
          <mxGeometry x="880" y="1095" width="260" height="60" as="geometry" />
        </mxCell>
        <mxCell id="CrhpLXHgYyasZIyoGrmP-43" value="" style="endArrow=classic;html=1;rounded=0;exitX=1;exitY=0.5;exitDx=0;exitDy=0;entryX=0;entryY=0.5;entryDx=0;entryDy=0;" edge="1" parent="1" source="CrhpLXHgYyasZIyoGrmP-8" target="CrhpLXHgYyasZIyoGrmP-33">
          <mxGeometry width="50" height="50" relative="1" as="geometry">
            <mxPoint x="750" y="430" as="sourcePoint" />
            <mxPoint x="800" y="380" as="targetPoint" />
          </mxGeometry>
        </mxCell>
        <mxCell id="CrhpLXHgYyasZIyoGrmP-44" value="" style="endArrow=classic;html=1;rounded=0;exitX=1;exitY=0.5;exitDx=0;exitDy=0;entryX=0;entryY=0.5;entryDx=0;entryDy=0;" edge="1" parent="1" source="CrhpLXHgYyasZIyoGrmP-8" target="CrhpLXHgYyasZIyoGrmP-39">
          <mxGeometry width="50" height="50" relative="1" as="geometry">
            <mxPoint x="750" y="430" as="sourcePoint" />
            <mxPoint x="800" y="380" as="targetPoint" />
          </mxGeometry>
        </mxCell>
        <mxCell id="CrhpLXHgYyasZIyoGrmP-45" value="" style="endArrow=classic;html=1;rounded=0;exitX=1;exitY=0.5;exitDx=0;exitDy=0;entryX=0;entryY=0.5;entryDx=0;entryDy=0;" edge="1" parent="1" source="CrhpLXHgYyasZIyoGrmP-8" target="CrhpLXHgYyasZIyoGrmP-40">
          <mxGeometry width="50" height="50" relative="1" as="geometry">
            <mxPoint x="750" y="430" as="sourcePoint" />
            <mxPoint x="800" y="380" as="targetPoint" />
          </mxGeometry>
        </mxCell>
        <mxCell id="CrhpLXHgYyasZIyoGrmP-46" value="" style="endArrow=classic;html=1;rounded=0;entryX=0;entryY=0.5;entryDx=0;entryDy=0;" edge="1" parent="1" target="CrhpLXHgYyasZIyoGrmP-41">
          <mxGeometry width="50" height="50" relative="1" as="geometry">
            <mxPoint x="650" y="90" as="sourcePoint" />
            <mxPoint x="800" y="660" as="targetPoint" />
          </mxGeometry>
        </mxCell>
        <mxCell id="CrhpLXHgYyasZIyoGrmP-47" value="" style="endArrow=classic;html=1;rounded=0;entryX=0;entryY=0.5;entryDx=0;entryDy=0;" edge="1" parent="1" target="CrhpLXHgYyasZIyoGrmP-42">
          <mxGeometry width="50" height="50" relative="1" as="geometry">
            <mxPoint x="650" y="90" as="sourcePoint" />
            <mxPoint x="800" y="490" as="targetPoint" />
          </mxGeometry>
        </mxCell>
        <mxCell id="CrhpLXHgYyasZIyoGrmP-48" value="" style="endArrow=classic;html=1;rounded=0;entryX=0;entryY=0.5;entryDx=0;entryDy=0;" edge="1" parent="1" target="CrhpLXHgYyasZIyoGrmP-33">
          <mxGeometry width="50" height="50" relative="1" as="geometry">
            <mxPoint x="650" y="250" as="sourcePoint" />
            <mxPoint x="800" y="280" as="targetPoint" />
          </mxGeometry>
        </mxCell>
        <mxCell id="CrhpLXHgYyasZIyoGrmP-49" value="" style="endArrow=classic;html=1;rounded=0;exitX=1;exitY=0.75;exitDx=0;exitDy=0;entryX=0;entryY=0.5;entryDx=0;entryDy=0;" edge="1" parent="1" source="CrhpLXHgYyasZIyoGrmP-13" target="CrhpLXHgYyasZIyoGrmP-39">
          <mxGeometry width="50" height="50" relative="1" as="geometry">
            <mxPoint x="750" y="330" as="sourcePoint" />
            <mxPoint x="800" y="280" as="targetPoint" />
          </mxGeometry>
        </mxCell>
        <mxCell id="CrhpLXHgYyasZIyoGrmP-50" value="" style="endArrow=classic;html=1;rounded=0;exitX=1;exitY=0.75;exitDx=0;exitDy=0;entryX=0;entryY=0.5;entryDx=0;entryDy=0;" edge="1" parent="1" source="CrhpLXHgYyasZIyoGrmP-13" target="CrhpLXHgYyasZIyoGrmP-40">
          <mxGeometry width="50" height="50" relative="1" as="geometry">
            <mxPoint x="750" y="330" as="sourcePoint" />
            <mxPoint x="800" y="280" as="targetPoint" />
          </mxGeometry>
        </mxCell>
        <mxCell id="CrhpLXHgYyasZIyoGrmP-51" value="" style="endArrow=classic;html=1;rounded=0;exitX=1;exitY=0.75;exitDx=0;exitDy=0;entryX=0;entryY=0.5;entryDx=0;entryDy=0;" edge="1" parent="1" source="CrhpLXHgYyasZIyoGrmP-13" target="CrhpLXHgYyasZIyoGrmP-41">
          <mxGeometry width="50" height="50" relative="1" as="geometry">
            <mxPoint x="750" y="430" as="sourcePoint" />
            <mxPoint x="800" y="380" as="targetPoint" />
          </mxGeometry>
        </mxCell>
        <mxCell id="CrhpLXHgYyasZIyoGrmP-52" value="" style="endArrow=classic;html=1;rounded=0;exitX=1;exitY=0.75;exitDx=0;exitDy=0;" edge="1" parent="1" source="CrhpLXHgYyasZIyoGrmP-13">
          <mxGeometry width="50" height="50" relative="1" as="geometry">
            <mxPoint x="750" y="480" as="sourcePoint" />
            <mxPoint x="880" y="1120" as="targetPoint" />
          </mxGeometry>
        </mxCell>
        <mxCell id="CrhpLXHgYyasZIyoGrmP-53" value="" style="endArrow=classic;html=1;rounded=0;" edge="1" parent="1">
          <mxGeometry width="50" height="50" relative="1" as="geometry">
            <mxPoint x="650" y="380" as="sourcePoint" />
            <mxPoint x="880" y="100" as="targetPoint" />
          </mxGeometry>
        </mxCell>
        <mxCell id="CrhpLXHgYyasZIyoGrmP-54" value="" style="endArrow=classic;html=1;rounded=0;exitX=1;exitY=0.75;exitDx=0;exitDy=0;entryX=0;entryY=0.5;entryDx=0;entryDy=0;" edge="1" parent="1" source="CrhpLXHgYyasZIyoGrmP-16" target="CrhpLXHgYyasZIyoGrmP-39">
          <mxGeometry width="50" height="50" relative="1" as="geometry">
            <mxPoint x="750" y="420" as="sourcePoint" />
            <mxPoint x="680" y="510" as="targetPoint" />
          </mxGeometry>
        </mxCell>
        <mxCell id="CrhpLXHgYyasZIyoGrmP-55" value="" style="endArrow=classic;html=1;rounded=0;exitX=1;exitY=0.75;exitDx=0;exitDy=0;entryX=0;entryY=0.5;entryDx=0;entryDy=0;" edge="1" parent="1" source="CrhpLXHgYyasZIyoGrmP-16" target="CrhpLXHgYyasZIyoGrmP-40">
          <mxGeometry width="50" height="50" relative="1" as="geometry">
            <mxPoint x="750" y="420" as="sourcePoint" />
            <mxPoint x="800" y="370" as="targetPoint" />
          </mxGeometry>
        </mxCell>
        <mxCell id="CrhpLXHgYyasZIyoGrmP-56" value="" style="endArrow=classic;html=1;rounded=0;entryX=0;entryY=0.5;entryDx=0;entryDy=0;" edge="1" parent="1" target="CrhpLXHgYyasZIyoGrmP-41">
          <mxGeometry width="50" height="50" relative="1" as="geometry">
            <mxPoint x="650" y="390" as="sourcePoint" />
            <mxPoint x="800" y="720" as="targetPoint" />
          </mxGeometry>
        </mxCell>
        <mxCell id="CrhpLXHgYyasZIyoGrmP-57" value="" style="endArrow=classic;html=1;rounded=0;exitX=1;exitY=0.75;exitDx=0;exitDy=0;entryX=0;entryY=0.5;entryDx=0;entryDy=0;" edge="1" parent="1" source="CrhpLXHgYyasZIyoGrmP-16" target="CrhpLXHgYyasZIyoGrmP-42">
          <mxGeometry width="50" height="50" relative="1" as="geometry">
            <mxPoint x="750" y="770" as="sourcePoint" />
            <mxPoint x="800" y="720" as="targetPoint" />
          </mxGeometry>
        </mxCell>
        <mxCell id="CrhpLXHgYyasZIyoGrmP-58" value="" style="endArrow=classic;html=1;rounded=0;exitX=1;exitY=0.5;exitDx=0;exitDy=0;entryX=0;entryY=0.5;entryDx=0;entryDy=0;" edge="1" parent="1" source="CrhpLXHgYyasZIyoGrmP-19" target="CrhpLXHgYyasZIyoGrmP-33">
          <mxGeometry width="50" height="50" relative="1" as="geometry">
            <mxPoint x="750" y="460" as="sourcePoint" />
            <mxPoint x="870" y="110" as="targetPoint" />
          </mxGeometry>
        </mxCell>
        <mxCell id="CrhpLXHgYyasZIyoGrmP-59" value="" style="endArrow=classic;html=1;rounded=0;exitX=1;exitY=0.5;exitDx=0;exitDy=0;entryX=0;entryY=0.5;entryDx=0;entryDy=0;" edge="1" parent="1" source="CrhpLXHgYyasZIyoGrmP-19" target="CrhpLXHgYyasZIyoGrmP-39">
          <mxGeometry width="50" height="50" relative="1" as="geometry">
            <mxPoint x="750" y="460" as="sourcePoint" />
            <mxPoint x="800" y="410" as="targetPoint" />
          </mxGeometry>
        </mxCell>
        <mxCell id="CrhpLXHgYyasZIyoGrmP-60" value="" style="endArrow=classic;html=1;rounded=0;exitX=1;exitY=0.5;exitDx=0;exitDy=0;entryX=0;entryY=0.5;entryDx=0;entryDy=0;" edge="1" parent="1" source="CrhpLXHgYyasZIyoGrmP-19" target="CrhpLXHgYyasZIyoGrmP-40">
          <mxGeometry width="50" height="50" relative="1" as="geometry">
            <mxPoint x="750" y="460" as="sourcePoint" />
            <mxPoint x="800" y="410" as="targetPoint" />
          </mxGeometry>
        </mxCell>
        <mxCell id="CrhpLXHgYyasZIyoGrmP-61" value="" style="endArrow=classic;html=1;rounded=0;exitX=1;exitY=0.5;exitDx=0;exitDy=0;entryX=0;entryY=0.5;entryDx=0;entryDy=0;" edge="1" parent="1" source="CrhpLXHgYyasZIyoGrmP-19" target="CrhpLXHgYyasZIyoGrmP-41">
          <mxGeometry width="50" height="50" relative="1" as="geometry">
            <mxPoint x="750" y="460" as="sourcePoint" />
            <mxPoint x="800" y="410" as="targetPoint" />
          </mxGeometry>
        </mxCell>
        <mxCell id="CrhpLXHgYyasZIyoGrmP-62" value="" style="endArrow=classic;html=1;rounded=0;exitX=1;exitY=0.5;exitDx=0;exitDy=0;entryX=0;entryY=0.5;entryDx=0;entryDy=0;" edge="1" parent="1" source="CrhpLXHgYyasZIyoGrmP-19" target="CrhpLXHgYyasZIyoGrmP-42">
          <mxGeometry width="50" height="50" relative="1" as="geometry">
            <mxPoint x="750" y="690" as="sourcePoint" />
            <mxPoint x="800" y="640" as="targetPoint" />
          </mxGeometry>
        </mxCell>
        <mxCell id="CrhpLXHgYyasZIyoGrmP-63" value="" style="endArrow=classic;html=1;rounded=0;" edge="1" parent="1">
          <mxGeometry width="50" height="50" relative="1" as="geometry">
            <mxPoint x="650" y="860" as="sourcePoint" />
            <mxPoint x="880" y="100" as="targetPoint" />
          </mxGeometry>
        </mxCell>
        <mxCell id="CrhpLXHgYyasZIyoGrmP-64" value="" style="endArrow=classic;html=1;rounded=0;" edge="1" parent="1">
          <mxGeometry width="50" height="50" relative="1" as="geometry">
            <mxPoint x="650" y="850" as="sourcePoint" />
            <mxPoint x="880" y="320" as="targetPoint" />
          </mxGeometry>
        </mxCell>
        <mxCell id="CrhpLXHgYyasZIyoGrmP-65" value="" style="endArrow=classic;html=1;rounded=0;" edge="1" parent="1">
          <mxGeometry width="50" height="50" relative="1" as="geometry">
            <mxPoint x="650" y="850" as="sourcePoint" />
            <mxPoint x="880" y="600" as="targetPoint" />
          </mxGeometry>
        </mxCell>
        <mxCell id="CrhpLXHgYyasZIyoGrmP-66" value="" style="endArrow=classic;html=1;rounded=0;" edge="1" parent="1">
          <mxGeometry width="50" height="50" relative="1" as="geometry">
            <mxPoint x="650" y="850" as="sourcePoint" />
            <mxPoint x="880" y="870" as="targetPoint" />
          </mxGeometry>
        </mxCell>
        <mxCell id="CrhpLXHgYyasZIyoGrmP-67" value="" style="endArrow=classic;html=1;rounded=0;exitX=1;exitY=0.5;exitDx=0;exitDy=0;" edge="1" parent="1" source="CrhpLXHgYyasZIyoGrmP-21">
          <mxGeometry width="50" height="50" relative="1" as="geometry">
            <mxPoint x="750" y="950" as="sourcePoint" />
            <mxPoint x="880" y="1130" as="targetPoint" />
          </mxGeometry>
        </mxCell>
        <mxCell id="CrhpLXHgYyasZIyoGrmP-68" value="" style="endArrow=classic;html=1;rounded=0;exitX=0.994;exitY=0.462;exitDx=0;exitDy=0;exitPerimeter=0;entryX=0;entryY=0.5;entryDx=0;entryDy=0;" edge="1" parent="1" source="CrhpLXHgYyasZIyoGrmP-24" target="CrhpLXHgYyasZIyoGrmP-33">
          <mxGeometry width="50" height="50" relative="1" as="geometry">
            <mxPoint x="750" y="1100" as="sourcePoint" />
            <mxPoint x="880" y="110" as="targetPoint" />
          </mxGeometry>
        </mxCell>
        <mxCell id="CrhpLXHgYyasZIyoGrmP-69" value="" style="endArrow=classic;html=1;rounded=0;exitX=0.994;exitY=0.474;exitDx=0;exitDy=0;exitPerimeter=0;entryX=0;entryY=0.75;entryDx=0;entryDy=0;" edge="1" parent="1" source="CrhpLXHgYyasZIyoGrmP-24" target="CrhpLXHgYyasZIyoGrmP-39">
          <mxGeometry width="50" height="50" relative="1" as="geometry">
            <mxPoint x="750" y="680" as="sourcePoint" />
            <mxPoint x="800" y="630" as="targetPoint" />
          </mxGeometry>
        </mxCell>
        <mxCell id="CrhpLXHgYyasZIyoGrmP-70" value="" style="endArrow=classic;html=1;rounded=0;exitX=0.994;exitY=0.511;exitDx=0;exitDy=0;exitPerimeter=0;entryX=0;entryY=0.5;entryDx=0;entryDy=0;" edge="1" parent="1" source="CrhpLXHgYyasZIyoGrmP-24" target="CrhpLXHgYyasZIyoGrmP-40">
          <mxGeometry width="50" height="50" relative="1" as="geometry">
            <mxPoint x="750" y="860" as="sourcePoint" />
            <mxPoint x="800" y="810" as="targetPoint" />
          </mxGeometry>
        </mxCell>
        <mxCell id="CrhpLXHgYyasZIyoGrmP-71" value="" style="endArrow=classic;html=1;rounded=0;exitX=0.991;exitY=0.566;exitDx=0;exitDy=0;exitPerimeter=0;entryX=0;entryY=0.5;entryDx=0;entryDy=0;" edge="1" parent="1" source="CrhpLXHgYyasZIyoGrmP-24" target="CrhpLXHgYyasZIyoGrmP-41">
          <mxGeometry width="50" height="50" relative="1" as="geometry">
            <mxPoint x="750" y="940" as="sourcePoint" />
            <mxPoint x="800" y="890" as="targetPoint" />
          </mxGeometry>
        </mxCell>
        <mxCell id="CrhpLXHgYyasZIyoGrmP-72" value="" style="endArrow=classic;html=1;rounded=0;" edge="1" parent="1">
          <mxGeometry width="50" height="50" relative="1" as="geometry">
            <mxPoint x="650" y="1150" as="sourcePoint" />
            <mxPoint x="880" y="1130" as="targetPoint" />
          </mxGeometry>
        </mxCell>
      </root>
    </mxGraphModel>
  </diagram>
</mxfile>
